<?xml version="1.0" encoding="UTF-8" standalone="no"?>
<!DOCTYPE svg PUBLIC "-//W3C//DTD SVG 1.1//EN"
 "http://www.w3.org/Graphics/SVG/1.1/DTD/svg11.dtd">
<!-- Generated by graphviz version 2.26.3 (20100126.1600)
 -->
<!-- Title: Region Graph for &#39;main&#39; function Pages: 1 -->
<svg width="1298pt" height="1016pt"
 viewBox="0.00 0.00 1298.00 1016.00" xmlns="http://www.w3.org/2000/svg" xmlns:xlink="http://www.w3.org/1999/xlink">
<g id="graph1" class="graph" transform="scale(1 1) rotate(0) translate(4 1012)">
<title>Region Graph for &#39;main&#39; function</title>
<polygon fill="white" stroke="white" points="-4,5 -4,-1012 1295,-1012 1295,5 -4,5"/>
<text text-anchor="middle" x="645" y="-9.4" font-family="Times Roman,serif" font-size="14.00">Region Graph for &#39;main&#39; function</text>
<g id="graph2" class="cluster"><title>cluster_0x8f22c70</title>
<polygon fill="#a6cee3" stroke="#a6cee3" points="8,-34 8,-1000 1282,-1000 1282,-34 8,-34"/>
</g>
<g id="graph3" class="cluster"><title>cluster_0x8f23408</title>
<polygon fill="#b2df8a" stroke="#b2df8a" points="16,-288 16,-992 1274,-992 1274,-288 16,-288"/>
</g>
<g id="graph4" class="cluster"><title>cluster_0x8f230f8</title>
<polygon fill="#fb9a99" stroke="#fb9a99" points="24,-460 24,-730 356,-730 356,-460 24,-460"/>
</g>
<g id="graph5" class="cluster"><title>cluster_0x8f233c8</title>
<polygon fill="#fb9a99" stroke="#fb9a99" points="558,-424 558,-738 1266,-738 1266,-424 558,-424"/>
</g>
<g id="graph6" class="cluster"><title>cluster_0x8f23388</title>
<polygon fill="#fdbf6f" stroke="#fdbf6f" points="926,-460 926,-730 1258,-730 1258,-460 926,-460"/>
</g>
<!-- Node0x8f22cb0 -->
<g id="node1" class="node"><title>Node0x8f22cb0</title>
<polygon fill="none" stroke="black" points="108.5,-759 108.5,-983 637.5,-983 637.5,-759 108.5,-759"/>
<text text-anchor="start" x="116.5" y="-966.4" font-family="Times Roman,serif" font-size="14.00">entry:</text>
<text text-anchor="start" x="116.5" y="-948.4" font-family="Times Roman,serif" font-size="14.00"> %retval = alloca i32</text>
<text text-anchor="start" x="116.5" y="-930.4" font-family="Times Roman,serif" font-size="14.00"> %a = alloca i32</text>
<text text-anchor="start" x="116.5" y="-912.4" font-family="Times Roman,serif" font-size="14.00"> %b = alloca i32</text>
<text text-anchor="start" x="116.5" y="-894.4" font-family="Times Roman,serif" font-size="14.00"> %c = alloca i32</text>
<text text-anchor="start" x="116.5" y="-876.4" font-family="Times Roman,serif" font-size="14.00"> %&quot;alloca point&quot; = bitcast i32 0 to i32</text>
<text text-anchor="start" x="116.5" y="-858.4" font-family="Times Roman,serif" font-size="14.00"> call void @llvm.dbg.declare(metadata !{i32* %a}, metadata !6), !dbg !8</text>
<text text-anchor="start" x="116.5" y="-840.4" font-family="Times Roman,serif" font-size="14.00"> call void @llvm.dbg.declare(metadata !{i32* %b}, metadata !9), !dbg !8</text>
<text text-anchor="start" x="116.5" y="-822.4" font-family="Times Roman,serif" font-size="14.00"> call void @llvm.dbg.declare(metadata !{i32* %c}, metadata !10), !dbg !8</text>
<text text-anchor="start" x="116.5" y="-804.4" font-family="Times Roman,serif" font-size="14.00"> %0 = load i32* %a, align 4, !dbg !11</text>
<text text-anchor="start" x="116.5" y="-786.4" font-family="Times Roman,serif" font-size="14.00"> %1 = icmp ne i32 %0, 0, !dbg !11</text>
<text text-anchor="start" x="116.5" y="-768.4" font-family="Times Roman,serif" font-size="14.00"> br i1 %1, label %bb, label %bb3, !dbg !11</text>
</g>
<!-- Node0x8f1f1d8 -->
<g id="node3" class="node"><title>Node0x8f1f1d8</title>
<polygon fill="none" stroke="black" points="31.5,-641 31.5,-721 348.5,-721 348.5,-641 31.5,-641"/>
<text text-anchor="start" x="39.5" y="-704.4" font-family="Times Roman,serif" font-size="14.00">bb: </text>
<text text-anchor="start" x="39.5" y="-686.4" font-family="Times Roman,serif" font-size="14.00"> %2 = load i32* %b, align 4, !dbg !12</text>
<text text-anchor="start" x="39.5" y="-668.4" font-family="Times Roman,serif" font-size="14.00"> %3 = icmp ne i32 %2, 0, !dbg !12</text>
<text text-anchor="start" x="39.5" y="-650.4" font-family="Times Roman,serif" font-size="14.00"> br i1 %3, label %bb1, label %bb2, !dbg !12</text>
</g>
<!-- Node0x8f22cb0&#45;&gt;Node0x8f1f1d8 -->
<g id="edge2" class="edge"><title>Node0x8f22cb0&#45;&gt;Node0x8f1f1d8</title>
<path fill="none" stroke="black" d="M264.961,-758.828C254.825,-748.305 244.969,-738.072 235.913,-728.67"/>
<polygon fill="black" stroke="black" points="238.29,-726.092 228.832,-721.318 233.249,-730.948 238.29,-726.092"/>
</g>
<!-- Node0x8f1ba90 -->
<g id="node5" class="node"><title>Node0x8f1ba90</title>
<polygon fill="none" stroke="black" points="366,-659 366,-703 550,-703 550,-659 366,-659"/>
<text text-anchor="start" x="374" y="-686.4" font-family="Times Roman,serif" font-size="14.00">bb3: </text>
<text text-anchor="start" x="374" y="-668.4" font-family="Times Roman,serif" font-size="14.00"> br label %bb6, !dbg !14</text>
</g>
<!-- Node0x8f22cb0&#45;&gt;Node0x8f1ba90 -->
<g id="edge4" class="edge"><title>Node0x8f22cb0&#45;&gt;Node0x8f1ba90</title>
<path fill="none" stroke="black" d="M423.182,-758.828C430.744,-741.926 437.969,-725.774 443.859,-712.609"/>
<polygon fill="black" stroke="black" points="447.197,-713.719 448.086,-703.161 440.807,-710.86 447.197,-713.719"/>
</g>
<!-- Node0x8f22f50 -->
<g id="node7" class="node"><title>Node0x8f22f50</title>
<polygon fill="none" stroke="black" points="42,-469 42,-567 338,-567 338,-469 42,-469"/>
<text text-anchor="start" x="50" y="-550.4" font-family="Times Roman,serif" font-size="14.00">bb1: </text>
<text text-anchor="start" x="50" y="-532.4" font-family="Times Roman,serif" font-size="14.00"> %4 = load i32* %c, align 4, !dbg !13</text>
<text text-anchor="start" x="50" y="-514.4" font-family="Times Roman,serif" font-size="14.00"> %5 = add nsw i32 %4, 1, !dbg !13</text>
<text text-anchor="start" x="50" y="-496.4" font-family="Times Roman,serif" font-size="14.00"> store i32 %5, i32* %c, align 4, !dbg !13</text>
<text text-anchor="start" x="50" y="-478.4" font-family="Times Roman,serif" font-size="14.00"> br label %bb2, !dbg !13</text>
</g>
<!-- Node0x8f1f1d8&#45;&gt;Node0x8f22f50 -->
<g id="edge6" class="edge"><title>Node0x8f1f1d8&#45;&gt;Node0x8f22f50</title>
<path fill="none" stroke="black" d="M190,-640.708C190,-621.588 190,-598.361 190,-577.282"/>
<polygon fill="black" stroke="black" points="193.5,-577.133 190,-567.133 186.5,-577.133 193.5,-577.133"/>
</g>
<!-- Node0x8f23180 -->
<g id="node9" class="node"><title>Node0x8f23180</title>
<polygon fill="none" stroke="black" points="208,-297 208,-395 506,-395 506,-297 208,-297"/>
<text text-anchor="start" x="216" y="-378.4" font-family="Times Roman,serif" font-size="14.00">bb2: </text>
<text text-anchor="start" x="216" y="-360.4" font-family="Times Roman,serif" font-size="14.00"> %6 = load i32* %b, align 4, !dbg !14</text>
<text text-anchor="start" x="216" y="-342.4" font-family="Times Roman,serif" font-size="14.00"> %7 = add nsw i32 %6, 1, !dbg !14</text>
<text text-anchor="start" x="216" y="-324.4" font-family="Times Roman,serif" font-size="14.00"> store i32 %7, i32* %b, align 4, !dbg !14</text>
<text text-anchor="start" x="216" y="-306.4" font-family="Times Roman,serif" font-size="14.00"> br label %bb8, !dbg !14</text>
</g>
<!-- Node0x8f1f1d8&#45;&gt;Node0x8f23180 -->
<g id="edge8" class="edge"><title>Node0x8f1f1d8&#45;&gt;Node0x8f23180</title>
<path fill="none" stroke="black" d="M308.859,-640.806C323.858,-630.991 337.315,-618.887 347,-604 385.43,-544.929 380.43,-461.108 370.849,-405.215"/>
<polygon fill="black" stroke="black" points="374.246,-404.33 369.016,-395.115 367.358,-405.58 374.246,-404.33"/>
</g>
<!-- Node0x8f231d0 -->
<g id="node16" class="node"><title>Node0x8f231d0</title>
<polygon fill="none" stroke="black" points="565.5,-433 565.5,-603 918.5,-603 918.5,-433 565.5,-433"/>
<text text-anchor="start" x="573.5" y="-586.4" font-family="Times Roman,serif" font-size="14.00">bb6: </text>
<text text-anchor="start" x="573.5" y="-568.4" font-family="Times Roman,serif" font-size="14.00"> %12 = load i32* %b, align 4, !dbg !17</text>
<text text-anchor="start" x="573.5" y="-550.4" font-family="Times Roman,serif" font-size="14.00"> %13 = icmp sgt i32 %12, 0, !dbg !17</text>
<text text-anchor="start" x="573.5" y="-532.4" font-family="Times Roman,serif" font-size="14.00"> %14 = zext i1 %13 to i8, !dbg !17</text>
<text text-anchor="start" x="573.5" y="-514.4" font-family="Times Roman,serif" font-size="14.00"> %15 = load i32* %b, align 4, !dbg !17</text>
<text text-anchor="start" x="573.5" y="-496.4" font-family="Times Roman,serif" font-size="14.00"> %16 = sub nsw i32 %15, 1, !dbg !17</text>
<text text-anchor="start" x="573.5" y="-478.4" font-family="Times Roman,serif" font-size="14.00"> store i32 %16, i32* %b, align 4, !dbg !17</text>
<text text-anchor="start" x="573.5" y="-460.4" font-family="Times Roman,serif" font-size="14.00"> %toBool = icmp ne i8 %14, 0, !dbg !17</text>
<text text-anchor="start" x="573.5" y="-442.4" font-family="Times Roman,serif" font-size="14.00"> br i1 %toBool, label %bb4, label %bb7, !dbg !17</text>
</g>
<!-- Node0x8f1ba90&#45;&gt;Node0x8f231d0 -->
<g id="edge16" class="edge"><title>Node0x8f1ba90&#45;&gt;Node0x8f231d0</title>
<path fill="none" stroke="black" d="M496.597,-658.847C520.125,-645.344 551.926,-627.092 584.825,-608.209"/>
<polygon fill="black" stroke="black" points="586.736,-611.148 593.667,-603.135 583.251,-605.077 586.736,-611.148"/>
</g>
<!-- Node0x8f22f50&#45;&gt;Node0x8f23180 -->
<g id="edge10" class="edge"><title>Node0x8f22f50&#45;&gt;Node0x8f23180</title>
<path fill="none" stroke="black" d="M237.855,-468.712C257.858,-448.11 281.22,-424.049 301.932,-402.717"/>
<polygon fill="black" stroke="black" points="304.683,-404.908 309.138,-395.295 299.66,-400.032 304.683,-404.908"/>
</g>
<!-- Node0x8f1baa0 -->
<g id="node12" class="node"><title>Node0x8f1baa0</title>
<polygon fill="none" stroke="black" points="380.5,-143 380.5,-259 685.5,-259 685.5,-143 380.5,-143"/>
<text text-anchor="start" x="388.5" y="-242.4" font-family="Times Roman,serif" font-size="14.00">bb8: </text>
<text text-anchor="start" x="388.5" y="-224.4" font-family="Times Roman,serif" font-size="14.00"> %19 = load i32* %c, align 4, !dbg !19</text>
<text text-anchor="start" x="388.5" y="-206.4" font-family="Times Roman,serif" font-size="14.00"> %20 = load i32* %a, align 4, !dbg !19</text>
<text text-anchor="start" x="388.5" y="-188.4" font-family="Times Roman,serif" font-size="14.00"> %21 = add nsw i32 %19, %20, !dbg !19</text>
<text text-anchor="start" x="388.5" y="-170.4" font-family="Times Roman,serif" font-size="14.00"> store i32 %21, i32* %c, align 4, !dbg !19</text>
<text text-anchor="start" x="388.5" y="-152.4" font-family="Times Roman,serif" font-size="14.00"> br label %return, !dbg !20</text>
</g>
<!-- Node0x8f23180&#45;&gt;Node0x8f1baa0 -->
<g id="edge12" class="edge"><title>Node0x8f23180&#45;&gt;Node0x8f1baa0</title>
<path fill="none" stroke="black" d="M416.586,-296.91C428.808,-286.84 441.85,-276.095 454.618,-265.576"/>
<polygon fill="black" stroke="black" points="457.031,-268.123 462.523,-259.063 452.58,-262.721 457.031,-268.123"/>
</g>
<!-- Node0x8f22c58 -->
<g id="node14" class="node"><title>Node0x8f22c58</title>
<polygon fill="none" stroke="black" points="386,-43 386,-105 680,-105 680,-43 386,-43"/>
<text text-anchor="start" x="394" y="-88.4" font-family="Times Roman,serif" font-size="14.00">return: </text>
<text text-anchor="start" x="394" y="-70.4" font-family="Times Roman,serif" font-size="14.00"> %retval9 = load i32* %retval, !dbg !20</text>
<text text-anchor="start" x="394" y="-52.4" font-family="Times Roman,serif" font-size="14.00"> ret i32 %retval9, !dbg !20</text>
</g>
<!-- Node0x8f1baa0&#45;&gt;Node0x8f22c58 -->
<g id="edge14" class="edge"><title>Node0x8f1baa0&#45;&gt;Node0x8f22c58</title>
<path fill="none" stroke="black" d="M533,-142.704C533,-133.525 533,-124.2 533,-115.503"/>
<polygon fill="black" stroke="black" points="536.5,-115.258 533,-105.258 529.5,-115.258 536.5,-115.258"/>
</g>
<!-- Node0x8f231e0 -->
<g id="node18" class="node"><title>Node0x8f231e0</title>
<polygon fill="none" stroke="black" points="933.5,-641 933.5,-721 1250.5,-721 1250.5,-641 933.5,-641"/>
<text text-anchor="start" x="941.5" y="-704.4" font-family="Times Roman,serif" font-size="14.00">bb4: </text>
<text text-anchor="start" x="941.5" y="-686.4" font-family="Times Roman,serif" font-size="14.00"> %8 = load i32* %c, align 4, !dbg !15</text>
<text text-anchor="start" x="941.5" y="-668.4" font-family="Times Roman,serif" font-size="14.00"> %9 = icmp ne i32 %8, 0, !dbg !15</text>
<text text-anchor="start" x="941.5" y="-650.4" font-family="Times Roman,serif" font-size="14.00"> br i1 %9, label %bb5, label %bb6, !dbg !15</text>
</g>
<!-- Node0x8f231d0&#45;&gt;Node0x8f231e0 -->
<g id="edge18" class="edge"><title>Node0x8f231d0&#45;&gt;Node0x8f231e0</title>
<path fill="none" stroke="black" d="M918.619,-598.223C922.786,-600.172 926.918,-602.101 931,-604 954.081,-614.739 979.007,-626.14 1002.21,-636.784"/>
<polygon fill="black" stroke="black" points="1000.81,-639.989 1011.35,-640.979 1003.73,-633.627 1000.81,-639.989"/>
</g>
<!-- Node0x8f232c0 -->
<g id="node20" class="node"><title>Node0x8f232c0</title>
<polygon fill="none" stroke="black" points="555.5,-297 555.5,-395 862.5,-395 862.5,-297 555.5,-297"/>
<text text-anchor="start" x="563.5" y="-378.4" font-family="Times Roman,serif" font-size="14.00">bb7: </text>
<text text-anchor="start" x="563.5" y="-360.4" font-family="Times Roman,serif" font-size="14.00"> %17 = load i32* %a, align 4, !dbg !18</text>
<text text-anchor="start" x="563.5" y="-342.4" font-family="Times Roman,serif" font-size="14.00"> %18 = add nsw i32 %17, 1, !dbg !18</text>
<text text-anchor="start" x="563.5" y="-324.4" font-family="Times Roman,serif" font-size="14.00"> store i32 %18, i32* %a, align 4, !dbg !18</text>
<text text-anchor="start" x="563.5" y="-306.4" font-family="Times Roman,serif" font-size="14.00"> br label %bb8, !dbg !18</text>
</g>
<!-- Node0x8f231d0&#45;&gt;Node0x8f232c0 -->
<g id="edge20" class="edge"><title>Node0x8f231d0&#45;&gt;Node0x8f232c0</title>
<path fill="none" stroke="black" d="M725.645,-432.756C723.855,-423.427 722.063,-414.086 720.353,-405.172"/>
<polygon fill="black" stroke="black" points="723.783,-404.475 718.461,-395.313 716.908,-405.794 723.783,-404.475"/>
</g>
<!-- Node0x8f231e0&#45;&gt;Node0x8f231d0 -->
<g id="edge24" class="edge"><title>Node0x8f231e0&#45;&gt;Node0x8f231d0</title>
<path fill="none" stroke="black" d="M994.11,-640.979C970.551,-630.469 945.357,-618.997 920.324,-607.399"/>
<polygon fill="black" stroke="black" points="921.656,-604.158 911.112,-603.121 918.708,-610.507 921.656,-604.158"/>
</g>
<!-- Node0x8f232f0 -->
<g id="node22" class="node"><title>Node0x8f232f0</title>
<polygon fill="none" stroke="black" points="938.5,-469 938.5,-567 1245.5,-567 1245.5,-469 938.5,-469"/>
<text text-anchor="start" x="946.5" y="-550.4" font-family="Times Roman,serif" font-size="14.00">bb5: </text>
<text text-anchor="start" x="946.5" y="-532.4" font-family="Times Roman,serif" font-size="14.00"> %10 = load i32* %a, align 4, !dbg !16</text>
<text text-anchor="start" x="946.5" y="-514.4" font-family="Times Roman,serif" font-size="14.00"> %11 = add nsw i32 %10, 1, !dbg !16</text>
<text text-anchor="start" x="946.5" y="-496.4" font-family="Times Roman,serif" font-size="14.00"> store i32 %11, i32* %a, align 4, !dbg !16</text>
<text text-anchor="start" x="946.5" y="-478.4" font-family="Times Roman,serif" font-size="14.00"> br label %bb6, !dbg !16</text>
</g>
<!-- Node0x8f231e0&#45;&gt;Node0x8f232f0 -->
<g id="edge22" class="edge"><title>Node0x8f231e0&#45;&gt;Node0x8f232f0</title>
<path fill="none" stroke="black" d="M1092,-640.708C1092,-621.588 1092,-598.361 1092,-577.282"/>
<polygon fill="black" stroke="black" points="1095.5,-577.133 1092,-567.133 1088.5,-577.133 1095.5,-577.133"/>
</g>
<!-- Node0x8f232c0&#45;&gt;Node0x8f1baa0 -->
<g id="edge28" class="edge"><title>Node0x8f232c0&#45;&gt;Node0x8f1baa0</title>
<path fill="none" stroke="black" d="M649.414,-296.91C637.192,-286.84 624.15,-276.095 611.382,-265.576"/>
<polygon fill="black" stroke="black" points="613.42,-262.721 603.477,-259.063 608.969,-268.123 613.42,-262.721"/>
</g>
<!-- Node0x8f232f0&#45;&gt;Node0x8f231d0 -->
<g id="edge26" class="edge"><title>Node0x8f232f0&#45;&gt;Node0x8f231d0</title>
<path fill="none" stroke="black" d="M938.34,-518C935.17,-518 932.001,-518 928.831,-518"/>
<polygon fill="black" stroke="black" points="928.709,-514.5 918.709,-518 928.709,-521.5 928.709,-514.5"/>
</g>
</g>
</svg>
